<svg version="1.1" xmlns="http://www.w3.org/2000/svg" xmlns:xlink="http://www.w3.org/1999/xlink" width="339.96816" height="339.96816" viewBox="0,0,339.96816,339.96816"><g transform="translate(-70.01592,-10.01592)"><g data-paper-data="{&quot;isPaintingLayer&quot;:true}" fill-rule="nonzero" stroke-linejoin="miter" stroke-miterlimit="10" stroke-dasharray="" stroke-dashoffset="0" style="mix-blend-mode: normal"><path d="M70.01592,180c0,-93.87961 76.10447,-169.98408 169.98408,-169.98408c93.87961,0 169.98408,76.10447 169.98408,169.98408c0,93.87961 -76.10447,169.98408 -169.98408,169.98408c-93.87961,0 -169.98408,-76.10447 -169.98408,-169.98408z" fill="#9d9d9d" stroke="none" stroke-width="none" stroke-linecap="butt"/><g><path d="M366.16625,167.98266v98.75658c0,17.41884 -14.12277,31.54153 -31.54153,31.54153h-189.24935c-17.41884,0 -31.54153,-14.12276 -31.54153,-31.54153v-98.75658c-9.88038,-11.03951 -15.7708,-24.56298 -15.7708,-39.23765c0,-35.94158 34.97172,-65.18852 78.85387,-66.86018v-0.16558h126.1662v0.16558c43.88215,1.67173 78.85387,30.9186 78.85387,66.86018c0,14.67468 -5.89035,28.19814 -15.7708,39.23765z" fill="#d99e82" stroke="none" stroke-width="1" stroke-linecap="butt"/><path d="M247.88537,167.98266h118.2808v11.8281h-118.2808z" fill="#cc927a" stroke="none" stroke-width="1" stroke-linecap="butt"/><path d="M247.88537,161.69797v97.15586c0,13.06612 -10.5901,23.65612 -23.65613,23.65612h-70.96846c-13.06611,0 -23.65613,-10.59009 -23.65613,-23.65612v-97.11646c-9.8252,-8.91836 -15.7708,-20.4153 -15.7708,-32.99244c0,-28.30855 30.01176,-51.25504 67.02577,-51.25504c1.32473,0 18.41241,0.03155 19.7135,0.08671c35.18462,1.56132 63.08314,23.87695 63.08314,51.16825c0,12.56144 -5.96137,24.03468 -15.7708,32.95305z" fill="#ffe8b6" stroke="none" stroke-width="1" stroke-linecap="butt"/><path d="M247.88544,161.69797v97.15586c0,13.06612 -10.59009,23.65612 -23.65612,23.65612h-70.96847c-13.06611,0 -23.65613,-10.59009 -23.65613,-23.65612v-97.11646c-3.05955,-2.77713 7.51367,-17.8656 18.63833,-19.61173c21.83977,-1.37927 65.57485,-3.475 81.54349,-0.3084c11.89944,2.35964 20.85209,17.37764 18.09898,19.88065z" fill="#ffffff" stroke="none" stroke-width="1" stroke-linecap="butt"/><path d="M138.43456,122.46989c0,-5.36042 4.34551,-9.70593 9.70593,-9.70593c5.36041,0 9.70592,4.34551 9.70592,9.70593c0,5.36042 -4.34551,9.70592 -9.70592,9.70592c-5.36041,0 -9.70593,-4.34551 -9.70593,-9.70592z" fill="#000000" stroke="none" stroke-width="0" stroke-linecap="butt"/><path d="M186.27087,122.46989c0,-5.36042 4.34552,-9.70593 9.70593,-9.70593c5.36041,0 9.70592,4.34551 9.70592,9.70593c0,5.36042 -4.34551,9.70592 -9.70592,9.70592c-5.36041,0 -9.70593,-4.34551 -9.70593,-9.70592z" fill="#000000" stroke="none" stroke-width="0" stroke-linecap="butt"/><path d="M152.30017,101.32494c0,-4.02031 3.25912,-7.27943 7.27943,-7.27943c4.02031,0 7.27943,3.25912 7.27943,7.27943c0,4.02031 -3.25912,7.27943 -7.27943,7.27943c-4.02031,0 -7.27943,-3.25912 -7.27943,-7.27943z" fill="#ffffff" stroke="none" stroke-width="0" stroke-linecap="butt"/><path d="M180.72463,101.32494c0,-4.02031 3.25912,-7.27943 7.27943,-7.27943c4.02031,0 7.27943,3.25912 7.27943,7.27943c0,4.02031 -3.25912,7.27943 -7.27943,7.27943c-4.02031,0 -7.27943,-3.25912 -7.27943,-7.27943z" fill="#ffffff" stroke="none" stroke-width="0" stroke-linecap="butt"/><path d="M174.73202,151.71951c-0.71843,1.02747 -1.86675,1.00808 -2.54979,-0.04332l-12.58836,-12.78917c-1.60519,-2.58942 0.85914,-4.67879 3.0357,-4.83245h22.42424c2.6376,0 4.15018,2.68469 2.66443,4.63548z" fill="#000000" stroke="#0f9871" stroke-width="0" stroke-linecap="butt"/><g fill="#ffe8b6" stroke="#000000" stroke-width="0" stroke-linecap="round"><path d="M255.35391,66.11262c5.8125,8.22904 0.82163,39.70128 -2.57631,39.73c-2.49854,0.02111 -19.98016,-15.6188 -20.87986,-18.75565c-1.25269,-4.36772 16.48484,-24.08523 23.45618,-20.97435z"/><path d="M144.26355,87.08697c-0.89971,3.13685 -18.38133,18.77684 -20.87987,18.75565c-3.39794,-0.02872 -8.38881,-31.50096 -2.5763,-39.73c6.97133,-3.11087 24.70886,16.60663 23.45617,20.97435z" data-paper-data="{&quot;index&quot;:null}"/></g><path d="M173.83859,165.51457c0,0 1.90951,12.97579 -11.02265,12.02476c-10.54732,-0.77564 -9.68654,-12.02476 -9.68654,-12.02476" fill="none" stroke="#000000" stroke-width="1" stroke-linecap="round"/><path d="M194.54786,165.51457c0,0 1.90951,12.97571 -11.02265,12.02476c-10.54732,-0.77564 -9.68654,-12.02476 -9.68654,-12.02476v-25.01938" fill="none" stroke="#000000" stroke-width="1" stroke-linecap="round"/></g></g></g></svg>