<svg xmlns="http://www.w3.org/2000/svg" enable-background="new 0 0 24 24" viewBox="0 0 24 24"><path d="m12.757 22.001c-2.22 0-4.384-.725-6.144-2.061-.044.039-.092.082-.15.118-.58.433-1.417.339-1.884-.219l-1.43-1.756c-.01-.012-.02-.025-.028-.038-.012-.018-.022-.036-.032-.055-.04-.078-.053-.115-.072-.167h.001c-.007-.016-.013-.031-.018-.046 0-.001-.001-.003-.002-.005-.274-.839.266-1.306.526-1.531.012-.01.025-.021.039-.033-.479-1.016-.779-2.109-.891-3.253-.057-.526-.05-.898-.046-1.098-.008-.246.165-.505.406-.552.24-.045.48.044.564.277.032.087.058.225.084.396.113.735.296 1.41 1.278 1.603 1.019.201 2.354-.783 2.807-3.004.295-1.448.136-2.86-.414-3.686-.225-.339-.494-.541-.798-.601-.405-.08-.705.073-1.221.442-.22.158-.526.111-.689-.105-.164-.215-.126-.522.085-.691.016-.017.062-.072.126-.147 2.176-2.514 4.871-3.789 8.01-3.789.016 0 .033.001.048.002 3.989.042 7.656 2.464 9.236 6.071.191-.006.399-.069.714-.184.535-.194.823.005.948.142.258.282.253.714-.014 1.286-.191.408-.584.844-.938 1.185.332 2.141-.046 4.32-1.077 6.192.207.191.553.51.553 1.098 0 .581-.304.879-.764 1.331-.208.204-.475.466-.809.838l-.328.318c-.013.017-.027.033-.043.049-.017.017-.035.033-.054.047-.241.183-.529.279-.833.279-.498 0-.808-.243-.972-.397-1.605 1.083-3.481 1.683-5.441 1.738-.006 0-.012 0-.017.001-.105.003-.21.005-.316.005zm-6.128-3.125c.187 0 .346.079.467.172 1.675 1.317 3.771 2.018 5.914 1.949.007 0 .015 0 .022-.001 1.824-.045 3.568-.612 5.047-1.642.005-.003.01-.007.015-.011.01-.007.02-.014.03-.02 0 0 0 0 .001-.001.304-.195.705-.16.967.088.003.003.078.071.081.074.105.105.178.169.331.169.081 0 .145-.024.19-.05l.348-.337c.328-.366.609-.643.828-.858.433-.426.465-.479.465-.618 0-.137-.063-.208-.231-.364-.161-.148-.586-.542-.274-1.081 1.001-1.742 1.366-3.889 1.005-5.904-.003-.013-.006-.027-.008-.041-.001-.008-.002-.017-.003-.025-.001-.007-.003-.015-.004-.022h.002c-.015-.211.099-.421.281-.514.364-.343.635-.661.762-.895-.395.118-.755.172-1.171.08-.161-.036-.293-.149-.355-.302-1.366-3.401-4.771-5.701-8.473-5.723-.014 0-.027 0-.041-.002-2.304.012-4.345.786-6.088 2.31.003.001.006.001.008.002.568.111 1.066.467 1.439 1.028.703 1.055.913 2.715.561 4.439-.587 2.884-2.453 4.085-3.979 3.786-.338-.066-.619-.174-.853-.31.146.564.348 1.109.602 1.631.009.014.017.029.024.044.259.533-.176.91-.362 1.07-.252.218-.287.275-.235.442.012.023.021.048.03.073l.258.337 1.116 1.348c.125.15.355.178.514.061.03-.025.063-.047.1-.065.009-.004.018-.009.027-.012.236-.225.453-.305.642-.305z"/><path d="m4.429 11.301c-.35 0-.774-.115-1.249-.468-.165-.099-.324-.226-.469-.375-.024.019-.048.036-.073.053-.004.003-.009.006-.013.009-.514.348-1.177.385-1.733.095-.55-.288-.892-.848-.892-1.463 0-.686.417-1.273 1.02-1.526-.028-.336.05-.678.231-.98.299-.497.825-.799 1.409-.811.715 0 1.306.386 1.574 1.007.122.283.162.582.124.868.149-.012.25-.012.333 0 .695.03 1.223.422 1.417 1.056.241.789-.094 1.774-.762 2.245-.164.115-.485.29-.917.29zm-1.695-2.144c.182 0 .349.099.438.258.134.242.33.445.567.589.433.319.767.374 1.032.189.319-.225.497-.755.381-1.135-.071-.232-.237-.343-.524-.349-.025 0-.05-.003-.075-.007-.106 0-.324.023-.519.042-.36.037-.468.048-.583.022-.176-.037-.318-.167-.371-.339s-.01-.36.114-.492c.181-.192.227-.453.122-.697-.109-.252-.342-.403-.624-.403-.254.004-.462.123-.584.326-.112.188-.125.404-.035.597.007.013.014.026.02.041.106.247-.003.538-.247.653-.079.037-.167.05-.243.047-.342.037-.603.315-.603.653 0 .353.249.521.356.576.235.122.503.107.717-.041.003-.002.006-.004.009-.006.085-.061.153-.144.205-.247.083-.166.251-.273.437-.277z"/></svg>